<svg width="64" height="64" viewBox="0 0 64 64" fill="none" xmlns="http://www.w3.org/2000/svg">
  <rect width="64" height="64" rx="18" fill="#13251A"/>
  <path d="M15 44V20H28.02C32.8 20 35.76 22.42 35.76 26.24C35.76 28.58 34.62 30.28 32.58 31.18C35.22 32.02 36.84 34.04 36.84 36.86C36.84 41.36 33.42 44 28.02 44H15ZM20.36 29.58H27.08C29.08 29.58 30.24 28.62 30.24 26.96C30.24 25.3 29.08 24.36 27.08 24.36H20.36V29.58ZM20.36 39.62H27.64C29.98 39.62 31.28 38.56 31.28 36.68C31.28 34.84 29.98 33.78 27.64 33.78H20.36V39.62Z" fill="#F5F4EC"/>
  <path d="M38.72 20H44.18L46.58 34.74L49.72 20H54.5L49.32 44H44.12L41.18 29.34L38.24 44H33.16L32.26 39.72H37.22L38.72 20Z" fill="#71C48B"/>
</svg>
