<svg width="326" height="267" viewBox="0 0 326 267" fill="none" xmlns="http://www.w3.org/2000/svg">
<path fill-rule="evenodd" clip-rule="evenodd" d="M64.3645 60.8367C97.9188 55.9902 135.266 57.8524 138.96 59.6783C138.96 59.6783 88.8103 98.9337 84.7761 102.092C80.7407 105.251 58.7508 108.915 46.138 103.509C33.5241 98.1021 0 77.7867 0 77.7867C0 77.7867 30.5836 65.7162 64.3645 60.8367ZM261.067 60.8367C294.848 65.7162 325.431 77.7856 325.431 77.7856C325.431 77.7856 291.907 98.1011 279.293 103.508C266.681 108.914 244.691 105.249 240.655 102.09C236.621 98.9337 186.471 59.6783 186.471 59.6783C190.166 57.8524 227.513 55.9902 261.067 60.8367Z" fill="#21191D"/>
<path fill-rule="evenodd" clip-rule="evenodd" d="M113.573 128.828C113.402 129.408 113.28 130.442 113.12 131.798C112.334 138.419 110.638 152.723 97.9675 159.429C82.7025 167.506 69.5376 170.598 69.5376 170.598C69.5376 170.598 71.5099 146.709 73.0081 136.821C75.5616 119.98 121.623 83.6404 121.623 83.6404C121.623 83.6404 114.578 125.412 113.573 128.828ZM211.4 128.828C210.396 125.412 203.35 83.6404 203.35 83.6404C203.35 83.6404 249.413 119.98 251.965 136.821C253.463 146.709 255.436 170.598 255.436 170.598C255.436 170.598 242.271 167.506 227.006 159.429C214.335 152.723 212.639 138.419 211.853 131.798C211.693 130.442 211.571 129.408 211.4 128.828Z" fill="#21191D"/>
<path fill-rule="evenodd" clip-rule="evenodd" d="M162.716 266.174C156.901 248.133 130.998 167.785 129.193 162.447C128.826 161.361 128.541 159.862 128.339 158.073L162.716 195.208L197.093 158.073C196.891 159.862 196.606 161.361 196.239 162.447C194.434 167.785 168.531 248.133 162.716 266.174Z" fill="#C6FA50"/>
<path fill-rule="evenodd" clip-rule="evenodd" d="M162.716 174.987L149.283 160.975L128.556 138.674C128.982 134.589 129.634 130.708 130.506 127.647C131.991 122.437 138.097 103.428 143.608 86.4011L162.716 107.04L181.823 86.4011C187.334 103.428 193.44 122.437 194.925 127.647C195.797 130.708 196.449 134.589 196.875 138.674L176.148 160.975L162.716 174.987Z" fill="#21191D"/>
<path fill-rule="evenodd" clip-rule="evenodd" d="M153.255 56.726L162.716 56.1692L172.177 56.726C172.177 56.726 174.777 64.6878 178.233 75.3273L172.915 81.0479L162.716 91.6874L152.517 81.0479L147.199 75.3273C150.655 64.6878 153.255 56.726 153.255 56.726Z" fill="#21191D"/>
<path fill-rule="evenodd" clip-rule="evenodd" d="M183.778 49.0175H141.655C136.479 43.808 133.304 36.782 133.304 29.0555C133.304 13.3758 146.38 0.577065 162.716 0C179.051 0.577065 192.128 13.3758 192.128 29.0555C192.128 36.782 188.952 43.808 183.778 49.0175Z" fill="#21191D"/>
</svg>
